<svg viewBox="0 0 64 64" fill="none" xmlns="http://www.w3.org/2000/svg">
  <defs>
    <linearGradient id="ic_cover" x1="10" y1="8" x2="48" y2="56" gradientUnits="userSpaceOnUse">
      <stop offset="0%" stop-color="#1E3A8A" />
      <stop offset="45%" stop-color="#2563EB" />
      <stop offset="100%" stop-color="#0F172A" />
    </linearGradient>
    <linearGradient id="ic_spine" x1="8" y1="8" x2="16" y2="56" gradientUnits="userSpaceOnUse">
      <stop offset="0%" stop-color="#0F172A" />
      <stop offset="100%" stop-color="#1E293B" />
    </linearGradient>
    <linearGradient id="ic_pages" x1="44" y1="12" x2="54" y2="52" gradientUnits="userSpaceOnUse">
      <stop offset="0%" stop-color="#FFFFFF" />
      <stop offset="100%" stop-color="#CBD5E1" />
    </linearGradient>
    <linearGradient id="ic_ribbon" x1="28" y1="6" x2="34" y2="24" gradientUnits="userSpaceOnUse">
      <stop offset="0%" stop-color="#10B981" />
      <stop offset="100%" stop-color="#059669" />
    </linearGradient>
    <linearGradient id="ic_digital" x1="20" y1="44" x2="43" y2="23" gradientUnits="userSpaceOnUse">
      <stop offset="0%" stop-color="#06B6D4" />
      <stop offset="100%" stop-color="#10B981" />
    </linearGradient>
  </defs>

  <path d="M18 10H48C51.3 10 54 12.7 54 16V48C54 51.3 51.3 54 48 54H18V10Z" fill="url(#ic_pages)" />
  <line x1="51" y1="14" x2="51" y2="50" stroke="#94A3B8" stroke-width="1" stroke-linecap="round" opacity="0.6" />
  <line x1="48" y1="12" x2="48" y2="52" stroke="#CBD5E1" stroke-width="1" stroke-linecap="round" />

  <rect x="10" y="8" width="38" height="48" rx="4" fill="url(#ic_cover)" />
  <path d="M14 9H44C46.2 9 47.8 10.3 47.8 12V13H14V9Z" fill="#FFFFFF" opacity="0.12" />

  <path d="M10 8H16V56H10C8.9 56 8 55.1 8 54V10C8 8.9 8.9 8 10 8Z" fill="url(#ic_spine)" />
  <line x1="16" y1="8" x2="16" y2="56" stroke="#38BDF8" stroke-width="0.8" stroke-opacity="0.35" />

  <line x1="10.5" y1="16" x2="13.5" y2="16" stroke="#94A3B8" stroke-width="1.6" stroke-linecap="round" />
  <line x1="10.5" y1="28" x2="13.5" y2="28" stroke="#94A3B8" stroke-width="1.6" stroke-linecap="round" />
  <line x1="10.5" y1="40" x2="13.5" y2="40" stroke="#94A3B8" stroke-width="1.6" stroke-linecap="round" />
  <line x1="10.5" y1="48" x2="13.5" y2="48" stroke="#94A3B8" stroke-width="1.6" stroke-linecap="round" />

  <path d="M26 6H32V23L29 20L26 23V6Z" fill="url(#ic_ribbon)" />

  <line x1="22" y1="20" x2="42" y2="20" stroke="#38BDF8" stroke-width="1.4" stroke-linecap="round" stroke-opacity="0.35" stroke-dasharray="2.5 2.5" />
  <line x1="22" y1="27" x2="42" y2="27" stroke="#38BDF8" stroke-width="1.4" stroke-linecap="round" stroke-opacity="0.2" />

  <path d="M21 44L27 36L33 40L41 26" stroke="url(#ic_digital)" stroke-width="2.5" stroke-linecap="round" stroke-linejoin="round" />

  <circle cx="21" cy="44" r="2.2" fill="#06B6D4" />
  <circle cx="27" cy="36" r="2.2" fill="#22D3EE" />
  <circle cx="33" cy="40" r="2.2" fill="#34D399" />
  <circle cx="41" cy="26" r="3" fill="#10B981" />
  <circle cx="41" cy="26" r="5" stroke="#34D399" stroke-width="1" stroke-opacity="0.65" />

  <path d="M42 13L43 16L46 17L43 18L42 21L41 18L38 17L41 16L42 13Z" fill="#38BDF8" opacity="0.9" />
</svg>
